<svg xmlns="http://www.w3.org/2000/svg" height="5000" width="5000">
<circle fill="black" stroke-width="2.000" cx="80.000" cy="100.000" r="4.000"/>
<polyline fill="none" stroke="black" stroke-width="2.000" points="80.000,100.000 120.000,100.000 130.000,90.000 150.000,110.000 170.000,90.000 190.000,110.000 210.000,90.000 230.000,110.000 240.000,100.000 280.000,100.000"/><circle fill="black" stroke-width="2.000" cx="280.000" cy="100.000" r="4.000"/>
<circle fill="black" stroke-width="2.000" cx="80.000" cy="200.000" r="4.000"/>
<polyline fill="none" stroke="black" stroke-width="2.000" points="80.000,200.000 170.000,200.000 170.000,180.000 170.000,220.000"/>
<polyline fill="none" stroke="black" stroke-width="2.000" points="190.000,180.000 190.000,220.000 190.000,200.000 480.000,200.000"/>
<circle fill="black" stroke-width="2.000" cx="480.000" cy="200.000" r="4.000"/>
<circle fill="black" stroke-width="2.000" cx="480.000" cy="300.000" r="4.000"/>
<line fill="none" stroke="black" stroke-width="2.000" x1="480.000" y1="300.000" x2="520.000" y2="300.000"/>
<path fill="none" stroke="black" stroke-width="2.000" d="M 520.000,300.000 C 520.000,280.000 540.000,280.000 540.000,300.000"/>
<path fill="none" stroke="black" stroke-width="2.000" d="M 540.000,300.000 C 540.000,280.000 560.000,280.000 560.000,300.000"/>
<path fill="none" stroke="black" stroke-width="2.000" d="M 560.000,300.000 C 560.000,280.000 580.000,280.000 580.000,300.000"/>
<path fill="none" stroke="black" stroke-width="2.000" d="M 580.000,300.000 C 580.000,280.000 600.000,280.000 600.000,300.000"/>
<path fill="none" stroke="black" stroke-width="2.000" d="M 600.000,300.000 C 600.000,280.000 620.000,280.000 620.000,300.000"/>
<path fill="none" stroke="black" stroke-width="2.000" d="M 620.000,300.000 C 620.000,280.000 640.000,280.000 640.000,300.000"/>
<line fill="none" stroke="black" stroke-width="2.000" x1="640.000" y1="300.000" x2="680.000" y2="300.000"/>
<circle fill="black" stroke-width="2.000" cx="680.000" cy="300.000" r="4.000"/>
<circle fill="black" stroke-width="2.000" cx="680.000" cy="400.000" r="4.000"/>
<line fill="none" stroke="black" stroke-width="2.000" x1="680.000" y1="400.000" x2="750.000" y2="400.000"/>
<circle fill="none" stroke="black" stroke-width="2.000" cx="780.000" cy="400.000" r="30.000"/>
<path fill="none" stroke="black" stroke-width="2.000" d="M 760.000,400.000 C 760.000,380.000 780.000,380.000 780.000,400.000 S 800.000,420.000 800.000,400.000 "/>
<line fill="none" stroke="black" stroke-width="2.000" x1="810.000" y1="400.000" x2="880.000" y2="400.000"/>
<circle fill="black" stroke-width="2.000" cx="880.000" cy="400.000" r="4.000"/>
<circle fill="black" stroke-width="2.000" cx="280.000" cy="500.000" r="4.000"/>
<polyline fill="none" stroke="black" stroke-width="2.000" points="280.000,500.000 320.000,500.000 330.000,490.000 350.000,510.000 370.000,490.000 390.000,510.000 410.000,490.000 430.000,510.000 440.000,500.000 1080.000,500.000"/><circle fill="black" stroke-width="2.000" cx="1080.000" cy="500.000" r="4.000"/>
<circle fill="black" stroke-width="2.000" cx="1080.000" cy="600.000" r="4.000"/>
<polyline fill="none" stroke="black" stroke-width="2.000" points="1080.000,600.000 1120.000,600.000 1130.000,590.000 1150.000,610.000 1170.000,590.000 1190.000,610.000 1210.000,590.000 1230.000,610.000 1240.000,600.000 1280.000,600.000"/><circle fill="black" stroke-width="2.000" cx="1280.000" cy="600.000" r="4.000"/>
<circle fill="black" stroke-width="2.000" cx="1280.000" cy="700.000" r="4.000"/>
<polyline fill="none" stroke="black" stroke-width="2.000" points="1280.000,700.000 1370.000,700.000 1370.000,680.000 1370.000,720.000"/>
<polyline fill="none" stroke="black" stroke-width="2.000" points="1390.000,680.000 1390.000,720.000 1390.000,700.000 1480.000,700.000"/>
<circle fill="black" stroke-width="2.000" cx="1480.000" cy="700.000" r="4.000"/>
<circle fill="black" stroke-width="2.000" cx="1480.000" cy="800.000" r="4.000"/>
<line fill="none" stroke="black" stroke-width="2.000" x1="1480.000" y1="800.000" x2="1520.000" y2="800.000"/>
<path fill="none" stroke="black" stroke-width="2.000" d="M 1520.000,800.000 C 1520.000,780.000 1540.000,780.000 1540.000,800.000"/>
<path fill="none" stroke="black" stroke-width="2.000" d="M 1540.000,800.000 C 1540.000,780.000 1560.000,780.000 1560.000,800.000"/>
<path fill="none" stroke="black" stroke-width="2.000" d="M 1560.000,800.000 C 1560.000,780.000 1580.000,780.000 1580.000,800.000"/>
<path fill="none" stroke="black" stroke-width="2.000" d="M 1580.000,800.000 C 1580.000,780.000 1600.000,780.000 1600.000,800.000"/>
<path fill="none" stroke="black" stroke-width="2.000" d="M 1600.000,800.000 C 1600.000,780.000 1620.000,780.000 1620.000,800.000"/>
<path fill="none" stroke="black" stroke-width="2.000" d="M 1620.000,800.000 C 1620.000,780.000 1640.000,780.000 1640.000,800.000"/>
<line fill="none" stroke="black" stroke-width="2.000" x1="1640.000" y1="800.000" x2="1680.000" y2="800.000"/>
<circle fill="black" stroke-width="2.000" cx="1680.000" cy="800.000" r="4.000"/>
<circle fill="black" stroke-width="2.000" cx="880.000" cy="900.000" r="4.000"/>
<line fill="none" stroke="black" stroke-width="2.000" x1="880.000" y1="900.000" x2="950.000" y2="900.000"/>
<circle fill="none" stroke="black" stroke-width="2.000" cx="980.000" cy="900.000" r="30.000"/>
<line fill="none" stroke="black" stroke-width="2.000" x1="960.000" y1="900.000" x2="1000.000" y2="900.000"/>
<polyline fill="black" stroke="black" stroke-width="2.000" points="1000.000,900.000 990.000,890.000 990.000,910.000"/>
<line fill="none" stroke="black" stroke-width="2.000" x1="1010.000" y1="900.000" x2="1680.000" y2="900.000"/>
<circle fill="black" stroke-width="2.000" cx="1680.000" cy="900.000" r="4.000"/>
<circle fill="black" stroke-width="2.000" cx="80.000" cy="100.000" r="4.000"/>
<line fill="none" stroke="black" stroke-width="2.000" x1="80.000" y1="100.000" x2="80.000" y2="200.000"/>
<circle fill="black" stroke-width="2.000" cx="80.000" cy="200.000" r="4.000"/>
<circle fill="black" stroke-width="2.000" cx="280.000" cy="100.000" r="4.000"/>
<line fill="none" stroke="black" stroke-width="2.000" x1="280.000" y1="100.000" x2="280.000" y2="500.000"/>
<circle fill="black" stroke-width="2.000" cx="280.000" cy="500.000" r="4.000"/>
<circle fill="black" stroke-width="2.000" cx="480.000" cy="200.000" r="4.000"/>
<line fill="none" stroke="black" stroke-width="2.000" x1="480.000" y1="200.000" x2="480.000" y2="300.000"/>
<circle fill="black" stroke-width="2.000" cx="480.000" cy="300.000" r="4.000"/>
<circle fill="black" stroke-width="2.000" cx="680.000" cy="300.000" r="4.000"/>
<line fill="none" stroke="black" stroke-width="2.000" x1="680.000" y1="300.000" x2="680.000" y2="400.000"/>
<circle fill="black" stroke-width="2.000" cx="680.000" cy="400.000" r="4.000"/>
<circle fill="black" stroke-width="2.000" cx="880.000" cy="400.000" r="4.000"/>
<line fill="none" stroke="black" stroke-width="2.000" x1="880.000" y1="400.000" x2="880.000" y2="900.000"/>
<circle fill="black" stroke-width="2.000" cx="880.000" cy="900.000" r="4.000"/>
<circle fill="black" stroke-width="2.000" cx="1080.000" cy="500.000" r="4.000"/>
<line fill="none" stroke="black" stroke-width="2.000" x1="1080.000" y1="500.000" x2="1080.000" y2="600.000"/>
<circle fill="black" stroke-width="2.000" cx="1080.000" cy="600.000" r="4.000"/>
<circle fill="black" stroke-width="2.000" cx="1280.000" cy="600.000" r="4.000"/>
<line fill="none" stroke="black" stroke-width="2.000" x1="1280.000" y1="600.000" x2="1280.000" y2="700.000"/>
<circle fill="black" stroke-width="2.000" cx="1280.000" cy="700.000" r="4.000"/>
<circle fill="black" stroke-width="2.000" cx="1480.000" cy="700.000" r="4.000"/>
<line fill="none" stroke="black" stroke-width="2.000" x1="1480.000" y1="700.000" x2="1480.000" y2="800.000"/>
<circle fill="black" stroke-width="2.000" cx="1480.000" cy="800.000" r="4.000"/>
<circle fill="black" stroke-width="2.000" cx="1680.000" cy="800.000" r="4.000"/>
<line fill="none" stroke="black" stroke-width="2.000" x1="1680.000" y1="800.000" x2="1680.000" y2="900.000"/>
<circle fill="black" stroke-width="2.000" cx="1680.000" cy="900.000" r="4.000"/>
</svg>
