<svg xmlns="http://www.w3.org/2000/svg" height="1000" width="1000">
<g transform="translate(50.000000,30.000000)">
<g transform="translate(-10.000000,10.000000)">
<g transform="translate(0.000000,100.000000)">
<g transform="translate(0.000000,100.000000)">
<g transform="translate(100.000000,0.000000)">
<g transform="translate(100.000000,0.000000)">
<circle cx="10.000000" cy="10.000000" r="2" fill="red"/><polyline fill="none" stroke="black" points="10.000,10.000 30.000,10.000 35.000,5.000 45.000,15.000 55.000,5.000 65.000,15.000 75.000,5.000 85.000,15.000 85.000,15.000 90.000,10.000 110.000,10.000"/>
<circle cx="110.000000" cy="10.000000" r="2" fill="red"/><text x="40.000000" y="40.000000" font-size="10px">
<tspan>R1</tspan>
<tspan>10K</tspan>
</text>

</g><g transform="translate(0.000000,0.000000)">
<circle fill="red" stroke-width="1.000" cx="10.000" cy="10.000" r="2.000"/>
<polyline fill="none" stroke="black" stroke-width="1.000" points="10.000,10.000 55.000,10.000 55.000,0.000 55.000,20.000"/>
<polyline fill="none" stroke="black" stroke-width="1.000" points="65.000,0.000 65.000,20.000 65.000,10.000 110.000,10.000"/>
<circle fill="red" stroke-width="1.000" cx="110.000" cy="10.000" r="2.000"/>
<text x="40.000000" y="40.000000" font-size="10px">
<tspan>C1</tspan>
<tspan>100NF</tspan>
</text>

</g>
</g><g transform="translate(0.000000,0.000000)">
<circle fill="red" stroke-width="1.000" cx="10.000" cy="10.000" r="2.000"/>
<line fill="none" stroke="black" stroke-width="1.000" x1="10.000" y1="10.000" x2="30.000" y2="10.000"/>
<path fill="none" stroke="black" stroke-width="1.000" d="M 30.000,10.000 C 30.000,0.000 40.000,0.000 40.000,10.000"/>
<path fill="none" stroke="black" stroke-width="1.000" d="M 40.000,10.000 C 40.000,0.000 50.000,0.000 50.000,10.000"/>
<path fill="none" stroke="black" stroke-width="1.000" d="M 50.000,10.000 C 50.000,0.000 60.000,0.000 60.000,10.000"/>
<path fill="none" stroke="black" stroke-width="1.000" d="M 60.000,10.000 C 60.000,0.000 70.000,0.000 70.000,10.000"/>
<path fill="none" stroke="black" stroke-width="1.000" d="M 70.000,10.000 C 70.000,0.000 80.000,0.000 80.000,10.000"/>
<path fill="none" stroke="black" stroke-width="1.000" d="M 80.000,10.000 C 80.000,0.000 90.000,0.000 90.000,10.000"/>
<line fill="none" stroke="black" stroke-width="1.000" x1="90.000" y1="10.000" x2="110.000" y2="10.000"/>
<circle fill="red" stroke-width="1.000" cx="110.000" cy="10.000" r="2.000"/>
<text x="40.000000" y="40.000000" font-size="10px">
<tspan>L1</tspan>
<tspan>10NH</tspan>
</text>

</g>
</g><line x1="10.000000" y1="10.000000" x2="10.000000" y2="110.000000" stroke-width="2" stroke="black" />
<circle fill="red" stroke-width="1.000" cx="10.000" cy="10.000" r="2.000"/>
<line fill="none" stroke="black" stroke-width="1.000" x1="10.000" y1="10.000" x2="45.000" y2="10.000"/>
<circle fill="none" stroke="black" stroke-width="1.000" cx="60.000" cy="10.000" r="15.000"/>
<path fill="none" stroke="black" stroke-width="1.000" d="M 50.000,10.000 C 50.000,0.000 60.000,0.000 60.000,10.000 S 70.000,20.000 70.000,10.000 "/>
<line fill="none" stroke="black" stroke-width="1.000" x1="75.000" y1="10.000" x2="110.000" y2="10.000"/>
<circle fill="red" stroke-width="1.000" cx="110.000" cy="10.000" r="2.000"/>
<text x="40.000000" y="40.000000" font-size="10px">
<tspan>V1</tspan>
<tspan>SINE ( 0 1 10Khz 0.0S )</tspan>
</text>
<line x1="310.000000" y1="210.000000" x2="310.000000" y2="110.000000" stroke-width="2" stroke="black" />
<g transform="translate(300.000000,200.000000)">
<circle fill="red" stroke-width="1.000" cx="10.000" cy="10.000" r="2.000"/>
<line fill="none" stroke="black" stroke-width="1.000" x1="10.000" y1="10.000" x2="30.000" y2="10.000"/>
<path fill="none" stroke="black" stroke-width="1.000" d="M 30.000,10.000 C 30.000,0.000 40.000,0.000 40.000,10.000"/>
<path fill="none" stroke="black" stroke-width="1.000" d="M 40.000,10.000 C 40.000,0.000 50.000,0.000 50.000,10.000"/>
<path fill="none" stroke="black" stroke-width="1.000" d="M 50.000,10.000 C 50.000,0.000 60.000,0.000 60.000,10.000"/>
<path fill="none" stroke="black" stroke-width="1.000" d="M 60.000,10.000 C 60.000,0.000 70.000,0.000 70.000,10.000"/>
<path fill="none" stroke="black" stroke-width="1.000" d="M 70.000,10.000 C 70.000,0.000 80.000,0.000 80.000,10.000"/>
<path fill="none" stroke="black" stroke-width="1.000" d="M 80.000,10.000 C 80.000,0.000 90.000,0.000 90.000,10.000"/>
<line fill="none" stroke="black" stroke-width="1.000" x1="90.000" y1="10.000" x2="110.000" y2="10.000"/>
<circle fill="red" stroke-width="1.000" cx="110.000" cy="10.000" r="2.000"/>
<text x="40.000000" y="40.000000" font-size="10px">
<tspan>L2</tspan>
<tspan>10NH</tspan>
</text>

</g><line x1="410.000000" y1="310.000000" x2="410.000000" y2="210.000000" stroke-width="2" stroke="black" />
<g transform="translate(400.000000,300.000000)">
<circle fill="red" stroke-width="1.000" cx="10.000" cy="10.000" r="2.000"/>
<polyline fill="none" stroke="black" stroke-width="1.000" points="10.000,10.000 55.000,10.000 55.000,0.000 55.000,20.000"/>
<polyline fill="none" stroke="black" stroke-width="1.000" points="65.000,0.000 65.000,20.000 65.000,10.000 110.000,10.000"/>
<circle fill="red" stroke-width="1.000" cx="110.000" cy="10.000" r="2.000"/>
<text x="40.000000" y="40.000000" font-size="10px">
<tspan>C2</tspan>
<tspan>100NF</tspan>
</text>

</g><line x1="510.000000" y1="410.000000" x2="510.000000" y2="310.000000" stroke-width="2" stroke="black" />
<g transform="translate(500.000000,400.000000)">
<circle cx="10.000000" cy="10.000000" r="2" fill="red"/><polyline fill="none" stroke="black" points="10.000,10.000 30.000,10.000 35.000,5.000 45.000,15.000 55.000,5.000 65.000,15.000 75.000,5.000 85.000,15.000 85.000,15.000 90.000,10.000 110.000,10.000"/>
<circle cx="110.000000" cy="10.000000" r="2" fill="red"/><text x="40.000000" y="40.000000" font-size="10px">
<tspan>R2</tspan>
<tspan>10K</tspan>
</text>

</g><line x1="610.000000" y1="510.000000" x2="610.000000" y2="410.000000" stroke-width="2" stroke="black" />
<g transform="translate(600.000000,500.000000)">
<circle fill="red" stroke-width="1.000" cx="10.000" cy="10.000" r="2.000"/>
<line fill="none" stroke="black" stroke-width="1.000" x1="10.000" y1="10.000" x2="30.000" y2="10.000"/>
<path fill="none" stroke="black" stroke-width="1.000" d="M 30.000,10.000 C 30.000,0.000 40.000,0.000 40.000,10.000"/>
<path fill="none" stroke="black" stroke-width="1.000" d="M 40.000,10.000 C 40.000,0.000 50.000,0.000 50.000,10.000"/>
<path fill="none" stroke="black" stroke-width="1.000" d="M 50.000,10.000 C 50.000,0.000 60.000,0.000 60.000,10.000"/>
<path fill="none" stroke="black" stroke-width="1.000" d="M 60.000,10.000 C 60.000,0.000 70.000,0.000 70.000,10.000"/>
<path fill="none" stroke="black" stroke-width="1.000" d="M 70.000,10.000 C 70.000,0.000 80.000,0.000 80.000,10.000"/>
<path fill="none" stroke="black" stroke-width="1.000" d="M 80.000,10.000 C 80.000,0.000 90.000,0.000 90.000,10.000"/>
<line fill="none" stroke="black" stroke-width="1.000" x1="90.000" y1="10.000" x2="110.000" y2="10.000"/>
<circle fill="red" stroke-width="1.000" cx="110.000" cy="10.000" r="2.000"/>
<text x="40.000000" y="40.000000" font-size="10px">
<tspan>L3</tspan>
<tspan>10NH</tspan>
</text>

</g><line x1="710.000000" y1="610.000000" x2="710.000000" y2="510.000000" stroke-width="2" stroke="black" />
<g transform="translate(700.000000,600.000000)">
<circle fill="red" stroke-width="1.000" cx="10.000" cy="10.000" r="2.000"/>
<polyline fill="none" stroke="black" stroke-width="1.000" points="10.000,10.000 55.000,10.000 55.000,0.000 55.000,20.000"/>
<polyline fill="none" stroke="black" stroke-width="1.000" points="65.000,0.000 65.000,20.000 65.000,10.000 110.000,10.000"/>
<circle fill="red" stroke-width="1.000" cx="110.000" cy="10.000" r="2.000"/>
<text x="40.000000" y="40.000000" font-size="10px">
<tspan>C3</tspan>
<tspan>100NF</tspan>
</text>

</g>
</g><line x1="110.000000" y1="110.000000" x2="110.000000" y2="10.000000" stroke-width="2" stroke="black" />
<line x1="810.000000" y1="710.000000" x2="810.000000" y2="10.000000" stroke-width="2" stroke="black" />
<line x1="810.000000" y1="10.000000" x2="210.000000" y2="10.000000" stroke-width="2" stroke="black" />
<g transform="translate(100.000000,0.000000)">
<g transform="rotate(180,110.000000,10.000000)">
<g transform="translate(100.000000,0.000000)">
<circle cx="10.000000" cy="10.000000" r="2" fill="red"/><polyline fill="none" stroke="black" points="10.000,10.000 30.000,10.000 35.000,5.000 45.000,15.000 55.000,5.000 65.000,15.000 75.000,5.000 85.000,15.000 85.000,15.000 90.000,10.000 110.000,10.000"/>
<circle cx="110.000000" cy="10.000000" r="2" fill="red"/><text x="40.000000" y="40.000000" font-size="10px">
<tspan>R3</tspan>
<tspan>10K</tspan>
</text>

</g>
</g>
</g>
</g><text x="210.000000" y="210.000000" font-size="10px">
<tspan>Net3</tspan>
</text>
<text x="310.000000" y="310.000000" font-size="10px">
<tspan>Net9</tspan>
</text>
<text x="110.000000" y="210.000000" font-size="10px">
<tspan>Net2</tspan>
</text>
<text x="10.000000" y="110.000000" font-size="10px">
<tspan>Net1</tspan>
</text>
<text x="110.000000" y="10.000000" font-size="10px">
<tspan>0</tspan>
</text>
<text x="410.000000" y="410.000000" font-size="10px">
<tspan>Net4</tspan>
</text>
<text x="510.000000" y="510.000000" font-size="10px">
<tspan>Net5</tspan>
</text>
<text x="610.000000" y="610.000000" font-size="10px">
<tspan>Net8</tspan>
</text>
<text x="710.000000" y="710.000000" font-size="10px">
<tspan>Net6</tspan>
</text>
<text x="810.000000" y="10.000000" font-size="10px">
<tspan>Net7</tspan>
</text>

</g>
</svg>
